<svg xmlns="http://www.w3.org/2000/svg" xmlns:xlink="http://www.w3.org/1999/xlink" width="40" height="20.366" viewBox="0 0 40 20.366">
  <defs>
    <linearGradient id="linear-gradient" x1="0.871" y1="0.429" x2="0.14" y2="0.548" gradientUnits="objectBoundingBox">
      <stop offset="0" stop-color="#f08efc"/>
      <stop offset="0.861" stop-color="#ee5570"/>
      <stop offset="1" stop-color="#ee5166"/>
    </linearGradient>
    <linearGradient id="linear-gradient-2" x1="0.5" x2="0.5" y2="1" gradientUnits="objectBoundingBox">
      <stop offset="0" stop-color="#d4feb4"/>
      <stop offset="1" stop-color="#005aa7"/>
    </linearGradient>
    <linearGradient id="linear-gradient-3" x1="0.5" x2="0.5" y2="1" gradientUnits="objectBoundingBox">
      <stop offset="0" stop-color="#fffde4"/>
      <stop offset="1" stop-color="#005aa7"/>
    </linearGradient>
  </defs>
  <g id="Grupo_4" data-name="Grupo 4" transform="translate(0 -197.28)">
    <g id="Grupo_3" data-name="Grupo 3" transform="translate(0 197.28)">
      <g id="Componente_2_2" data-name="Componente 2 – 2">
        <g id="Componente_1_1" data-name="Componente 1 – 1" transform="translate(0 0.02)">
          <path id="Caminho_3" data-name="Caminho 3" d="M18.416,100.642a7.3,7.3,0,0,0,5.412-2.448l-1.8-2.6a5.339,5.339,0,0,1-3.708,1.823,5.062,5.062,0,0,1,.01-10.118,5.275,5.275,0,0,1,3.689,1.724l1.81-2.527a7.755,7.755,0,0,0-5.47-2.467,8.306,8.306,0,0,0,.058,16.608Z" transform="translate(-10.254 -84.033)" fill="url(#linear-gradient)"/>
        </g>
        <path id="Caminho_1" data-name="Caminho 1" d="M15.647,100.4a5.2,5.2,0,0,0,5.4-5.153A4.411,4.411,0,0,0,18.2,91.014a3.32,3.32,0,0,0,2.033-3.1,4.412,4.412,0,0,0-4.579-4.172,4.408,4.408,0,0,0-4.56,4.182,3.207,3.207,0,0,0,2.043,3.092,4.269,4.269,0,0,0-2.885,4.221A5.2,5.2,0,0,0,15.647,100.4Zm.019-10.821a1.434,1.434,0,0,1-1.539-1.447,1.407,1.407,0,0,1,1.539-1.417,1.436,1.436,0,1,1,0,2.864Zm-.029,7.62a2.159,2.159,0,0,1-2.236-2.14A2.282,2.282,0,0,1,15.666,92.8a2.253,2.253,0,0,1,2.236,2.24A2.188,2.188,0,0,1,15.637,97.2Z" transform="translate(5.602 -83.74)" fill="url(#linear-gradient-2)"/>
        <path id="Caminho_2" data-name="Caminho 2" d="M16.644,94.654a4.211,4.211,0,0,0-1.046.139l3.243-5.906-3.573-.02c-4.521,8.552-5.015,9.325-5.015,10.891A5.159,5.159,0,0,0,15.7,105.1a5.508,5.508,0,0,0,5.528-5.5A4.8,4.8,0,0,0,16.644,94.654Zm-.891,7.254a2.388,2.388,0,0,1-2.353-2.4,2.363,2.363,0,1,1,2.353,2.4Z" transform="translate(18.767 -88.52)" fill="url(#linear-gradient-3)"/>
        <path id="Caminho_4" data-name="Caminho 4" d="M2.4,7.283H3.525V6.938h-.7v-1H2.4Zm1.957,0h.45l.112-.291h.646l.112.291h.451L5.586,5.939H4.9Zm.682-.6.155-.4h.1l.155.4Zm1.986.6h.95c.325,0,.454-.138.454-.349A.323.323,0,0,0,8.155,6.6a.3.3,0,0,0,.238-.315c0-.229-.157-.344-.464-.344H7.024Zm.422-.326V6.738h.406c.112,0,.154.037.154.11s-.043.109-.154.109Zm0-.472V6.266H7.81c.117,0,.162.038.162.109s-.042.11-.162.11Zm1.9-.126c0,.376.382.386.662.4.176.011.312.026.312.123,0,.074-.078.11-.245.11-.21,0-.317-.058-.317-.171h-.43c0,.307.245.478.72.478.453,0,.7-.155.7-.47,0-.355-.422-.347-.731-.371-.133-.01-.245-.026-.245-.107s.086-.126.245-.126.28.054.28.165h.429c0-.306-.245-.472-.69-.472S9.342,6.08,9.342,6.358Z" transform="translate(14.827 13.064)" fill="#fff"/>
      </g>
    </g>
  </g>
</svg>
