<?xml version="1.0" encoding="UTF-8"?>
<svg version="1.1" xmlns="http://www.w3.org/2000/svg" width="228" height="235">
<path d="M0 0 C4.63287099 -0.07786338 9.00830965 0.30876148 13.57421875 1.0859375 C14.26171875 3.2734375 14.26171875 3.2734375 14.57421875 6.0859375 C14.12046875 6.8284375 13.66671875 7.5709375 13.19921875 8.3359375 C10.54171217 12.83325633 10.07917595 17.36320208 11.01171875 22.4921875 C12.49343108 27.54347954 14.47481119 30.63380482 18.57421875 34.0859375 C18.90421875 34.4159375 19.23421875 34.7459375 19.57421875 35.0859375 C19.48140594 36.73561035 19.32322569 38.38171588 19.13671875 40.0234375 C17.75168537 54.35391618 18.5839037 65.75668879 27.98828125 77.3828125 C35.87172709 85.62351419 45.93039252 90.05082924 57.32421875 90.3984375 C61.29219891 90.26404958 64.7757905 89.23263282 68.57421875 88.0859375 C71.69921875 87.6484375 71.69921875 87.6484375 74.57421875 88.0859375 C77.19921875 90.4609375 77.19921875 90.4609375 79.57421875 93.0859375 C83.45494302 95.67308701 88.01548191 96.43618285 92.62890625 95.8046875 C95.93192138 95.05683502 98.37044464 94.21388869 101.26171875 92.3984375 C103.57421875 91.0859375 103.57421875 91.0859375 106.38671875 91.3984375 C107.10859375 91.6253125 107.83046875 91.8521875 108.57421875 92.0859375 C112.93835381 118.939446 106.30968658 146.70363755 91.32421875 169.2734375 C88.25949187 173.42815962 84.8543634 177.26681407 81.38671875 181.0859375 C80.8752832 181.65078857 80.36384766 182.21563965 79.83691406 182.79760742 C77.30004146 185.51740364 75.08574484 187.74502062 71.57421875 189.0859375 C71.57421875 189.7459375 71.57421875 190.4059375 71.57421875 191.0859375 C51.21319229 208.52106843 22.7197245 218.16409989 -4.10009766 216.31787109 C-27.61986725 213.97231356 -49.58983886 205.75717577 -67.42578125 190.0859375 C-68.23144531 189.42335937 -69.03710938 188.76078125 -69.8671875 188.078125 C-89.14191386 171.72929607 -101.35344775 148.11847299 -104.42578125 123.0859375 C-104.55984375 122.00699219 -104.69390625 120.92804688 -104.83203125 119.81640625 C-107.48941195 91.94410643 -100.16860533 63.0770434 -82.42578125 41.0859375 C-81.76578125 41.0859375 -81.10578125 41.0859375 -80.42578125 41.0859375 C-80.19890625 40.5496875 -79.97203125 40.0134375 -79.73828125 39.4609375 C-69.88229805 21.62630123 -46.12041411 10.00951925 -27.34960938 4.47363281 C-18.28375487 1.88399217 -9.43483309 0.33424529 0 0 Z " fill="#FAB87E" transform="translate(113.42578125,11.9140625)"/>
<path d="M0 0 C4.63287099 -0.07786338 9.00830965 0.30876148 13.57421875 1.0859375 C14.26171875 3.2734375 14.26171875 3.2734375 14.57421875 6.0859375 C14.12046875 6.8284375 13.66671875 7.5709375 13.19921875 8.3359375 C10.54171217 12.83325633 10.07917595 17.36320208 11.01171875 22.4921875 C12.49343108 27.54347954 14.47481119 30.63380482 18.57421875 34.0859375 C18.90421875 34.4159375 19.23421875 34.7459375 19.57421875 35.0859375 C19.48140594 36.73561035 19.32322569 38.38171588 19.13671875 40.0234375 C17.75168537 54.35391618 18.5839037 65.75668879 27.98828125 77.3828125 C35.87172709 85.62351419 45.93039252 90.05082924 57.32421875 90.3984375 C61.29219891 90.26404958 64.7757905 89.23263282 68.57421875 88.0859375 C71.69921875 87.6484375 71.69921875 87.6484375 74.57421875 88.0859375 C77.19921875 90.4609375 77.19921875 90.4609375 79.57421875 93.0859375 C83.45494302 95.67308701 88.01548191 96.43618285 92.62890625 95.8046875 C95.93192138 95.05683502 98.37044464 94.21388869 101.26171875 92.3984375 C103.57421875 91.0859375 103.57421875 91.0859375 106.38671875 91.3984375 C107.10859375 91.6253125 107.83046875 91.8521875 108.57421875 92.0859375 C112.93835381 118.939446 106.30968658 146.70363755 91.32421875 169.2734375 C88.25949187 173.42815962 84.8543634 177.26681407 81.38671875 181.0859375 C80.8752832 181.65078857 80.36384766 182.21563965 79.83691406 182.79760742 C77.30004146 185.51740364 75.08574484 187.74502062 71.57421875 189.0859375 C71.57421875 189.7459375 71.57421875 190.4059375 71.57421875 191.0859375 C51.21319229 208.52106843 22.7197245 218.16409989 -4.10009766 216.31787109 C-27.61986725 213.97231356 -49.58983886 205.75717577 -67.42578125 190.0859375 C-68.23144531 189.42335937 -69.03710938 188.76078125 -69.8671875 188.078125 C-89.14191386 171.72929607 -101.35344775 148.11847299 -104.42578125 123.0859375 C-104.55984375 122.00699219 -104.69390625 120.92804688 -104.83203125 119.81640625 C-107.48941195 91.94410643 -100.16860533 63.0770434 -82.42578125 41.0859375 C-81.76578125 41.0859375 -81.10578125 41.0859375 -80.42578125 41.0859375 C-80.19890625 40.5496875 -79.97203125 40.0134375 -79.73828125 39.4609375 C-69.88229805 21.62630123 -46.12041411 10.00951925 -27.34960938 4.47363281 C-18.28375487 1.88399217 -9.43483309 0.33424529 0 0 Z M-58.42578125 27.0859375 C-59.42738281 27.84003906 -60.42898437 28.59414063 -61.4609375 29.37109375 C-80.49088795 44.14509896 -93.52602772 66.51408332 -98.0078125 90.15625 C-100.91786798 117.51621083 -97.00382033 146.1040901 -79.55078125 168.3359375 C-78.18840809 169.93014854 -76.81331323 171.5135748 -75.42578125 173.0859375 C-74.74902344 173.90578125 -74.07226562 174.725625 -73.375 175.5703125 C-57.88646129 193.80544766 -34.36988283 207.00172395 -10.42578125 209.0859375 C16.51679872 210.43410957 43.29572946 205.86179481 64.57421875 188.0859375 C65.79238281 187.20808594 65.79238281 187.20808594 67.03515625 186.3125 C87.20556031 171.2280431 98.90181956 146.48247394 102.88671875 122.0234375 C103.7901373 114.70321433 103.75984074 107.44894323 103.57421875 100.0859375 C99.44448247 100.65333618 99.44448247 100.65333618 95.57421875 102.0859375 C87.61730261 103.2124543 82.20066784 101.42958705 75.30078125 97.49609375 C72.62181634 96.11055459 70.56236486 95.40074219 67.57421875 95.0859375 C66.58421875 95.4159375 65.59421875 95.7459375 64.57421875 96.0859375 C51.50543229 97.25877731 39.5249561 95.32199222 28.88671875 87.0859375 C20.61057582 79.99618466 14.62234866 69.95168263 12.796875 59.140625 C12.41990739 53.96889394 12.53558028 48.77728302 12.73486328 43.59741211 C12.76555908 42.40257202 12.76555908 42.40257202 12.796875 41.18359375 C12.82531494 40.46695557 12.85375488 39.75031738 12.88305664 39.01196289 C12.47925246 36.49369319 11.56591747 35.62370155 9.57421875 34.0859375 C8.91421875 34.0859375 8.25421875 34.0859375 7.57421875 34.0859375 C4.079849 25.6412106 2.84694655 15.99356041 5.57421875 7.0859375 C-17.35545401 5.47871745 -40.44491201 12.78755028 -58.42578125 27.0859375 Z " fill="#2B2C35" transform="translate(113.42578125,11.9140625)"/>
<path d="M0 0 C4.73094933 2.25030174 8.32014443 4.80829963 10.9609375 9.4296875 C12.64675022 15.75148519 12.45845141 21.63065634 9.15234375 27.37890625 C5.59081088 31.98283899 1.45441661 34.74693608 -4.296875 35.78515625 C-10.07780464 36.05319434 -14.42353257 35.57734978 -18.890625 31.7421875 C-23.8857399 26.38429889 -25.6157607 21.66196645 -25.5 14.51953125 C-25.05235488 9.68662192 -22.91101621 6.59206617 -19.3515625 3.4921875 C-13.24867291 -0.99156812 -7.42116922 -2.45683759 0 0 Z " fill="#B57647" transform="translate(67.2890625,92.7578125)"/>
<path d="M0 0 C4.32007315 2.20658909 6.89119646 4.93641345 8.875 9.30078125 C9.63668525 14.4990868 9.68842346 19.48438006 7.25 24.23828125 C3.94436196 28.50081451 1.54787093 30.83396999 -3.8984375 31.78515625 C-9.5965693 32.15833365 -13.31304809 31.81571307 -17.75 28.05078125 C-21.64836852 24.20175916 -23.41410552 20.9402067 -23.5 15.42578125 C-23.35007958 9.04479346 -20.71237585 6.08173952 -16.5625 1.42578125 C-11.87560528 -2.24998136 -5.43144556 -1.78718521 0 0 Z " fill="#B47547" transform="translate(145.125,147.69921875)"/>
<path d="M0 0 C4.31841267 2.68701233 5.43098641 5.27844758 6.6875 10.125 C6.85858216 15.08638254 5.45989637 18.67284805 2.375 22.5625 C-1.37928008 25.41575286 -4.33022594 26.19623247 -9.16015625 26.0703125 C-13.33798375 25.41023185 -16.05414979 22.84426917 -19 20 C-20.75230052 16.67985164 -21.30513142 13.45884944 -21.1875 9.75 C-19.30911295 3.71938894 -17.23315048 1.35297394 -11.8125 -1.5 C-7.39590415 -2.76188453 -4.18848303 -1.64254236 0 0 Z " fill="#4B474A" transform="translate(187.1875,15.25)"/>
<path d="M0 0 C3.66195861 1.59215592 6.20204902 3.40409804 8 7 C8.58377585 11.26236343 8.44772276 14.85581962 6.875 18.875 C3.55845935 22.63374607 -0.06138027 24.1506139 -5 24.5 C-9.68636403 24.33809107 -11.79568105 22.28247307 -15 19 C-16.86233425 15.27533151 -16.57130829 11.05504687 -16 7 C-12.27422487 0.03502484 -7.27191959 -0.70576689 0 0 Z " fill="#3A3434" transform="translate(77,147)"/>
<path d="M0 0 C4.73094933 2.25030174 8.32014443 4.80829963 10.9609375 9.4296875 C12.64675022 15.75148519 12.45845141 21.63065634 9.15234375 27.37890625 C5.59081088 31.98283899 1.45441661 34.74693608 -4.296875 35.78515625 C-10.07780464 36.05319434 -14.42353257 35.57734978 -18.890625 31.7421875 C-23.8857399 26.38429889 -25.6157607 21.66196645 -25.5 14.51953125 C-25.05235488 9.68662192 -22.91101621 6.59206617 -19.3515625 3.4921875 C-13.24867291 -0.99156812 -7.42116922 -2.45683759 0 0 Z M-18.2890625 8.2421875 C-21.00368082 12.71662735 -20.94083817 17.14868133 -20.2890625 22.2421875 C-18.12498346 26.65049666 -15.86399788 29.37062303 -11.2890625 31.2421875 C-5.6631003 31.77799342 -2.12763467 31.43124643 2.7109375 28.2421875 C6.11218633 24.56516173 7.54926067 21.95596187 8.0234375 16.9296875 C7.59355016 11.85701687 5.39467682 9.19532511 2.1484375 5.4296875 C-1.27438058 2.60214213 -5.55865278 2.85367296 -9.77734375 2.890625 C-13.91853336 3.47026274 -15.5011382 5.17547077 -18.2890625 8.2421875 Z " fill="#3B3434" transform="translate(67.2890625,92.7578125)"/>
<path d="M0 0 C3.15731015 2.61989565 5.69871679 4.80924065 6.2734375 8.98828125 C6.47157651 13.52261627 6.53156961 15.34576048 3.5625 19 C2.716875 19.66 1.87125 20.32 1 21 C0.67 21.33 0.34 21.66 0 22 C-4.08096316 22.53798008 -8.24979978 22.93436984 -11.9609375 20.953125 C-15.68609316 17.86397153 -16.89677638 16.03223624 -17.375 11.25 C-17.33925671 7.97353159 -16.80558697 6.18502549 -14.75 3.625 C-10.00532025 -0.90401249 -6.50480816 -2.03920573 0 0 Z " fill="#4B474A" transform="translate(175,51)"/>
<path d="M0 0 C2.96922861 1.79349379 5.42452071 3.84904142 7 7 C7.55512815 11.63213493 7.6364242 14.98172127 5.125 19 C1.5922879 22.3249055 -1.04920088 22.33797121 -5.7421875 22.28515625 C-9.11376856 21.85933373 -10.74020743 20.46522826 -13 18 C-15.28582634 14.73453379 -15.40058025 11.92568648 -15 8 C-12.02127243 1.25866919 -7.22687277 -1.01429793 0 0 Z " fill="#3B3434" transform="translate(98,65)"/>
<path d="M0 0 C3.51691768 1.14062195 5.03298731 2.91438394 7 6 C7.87667144 10.85723364 7.71427993 14.83334278 5.125 19.0625 C1.56729402 22.30629075 -1.07412967 22.33052231 -5.73828125 22.29296875 C-9.0542278 21.86344199 -10.74987627 20.39075646 -13 18 C-14.88016956 14.23966088 -14.64339971 10.08527583 -14 6 C-10.77285035 -0.07323365 -6.41731388 -0.8280405 0 0 Z " fill="#393233" transform="translate(113,112)"/>
<path d="M0 0 C4.32007315 2.20658909 6.89119646 4.93641345 8.875 9.30078125 C9.63668525 14.4990868 9.68842346 19.48438006 7.25 24.23828125 C3.94436196 28.50081451 1.54787093 30.83396999 -3.8984375 31.78515625 C-9.5965693 32.15833365 -13.31304809 31.81571307 -17.75 28.05078125 C-21.64836852 24.20175916 -23.41410552 20.9402067 -23.5 15.42578125 C-23.35007958 9.04479346 -20.71237585 6.08173952 -16.5625 1.42578125 C-11.87560528 -2.24998136 -5.43144556 -1.78718521 0 0 Z M-17.9375 8.48828125 C-19.48720573 12.15863693 -19.81733655 15.41304522 -19.125 19.30078125 C-17.50109951 22.43258934 -16.12233974 24.54417869 -13.3125 26.67578125 C-8.82455328 27.95805174 -5.21225194 27.71895507 -0.875 26.05078125 C2.55192848 23.87000858 4.4634651 21.97211686 5.44921875 17.96875 C5.62707512 14.07430879 5.61372356 11.37927947 3.36328125 8.09375 C0.1197967 4.96496628 -2.72134858 2.88566246 -7.3125 2.67578125 C-12.26258297 3.48727026 -14.74299382 4.63284275 -17.9375 8.48828125 Z " fill="#393233" transform="translate(145.125,147.69921875)"/>
<path d="M0 0 C3.51152485 2.80921988 4.04921307 4.68321511 4.625 9.125 C4.05235997 13.86973172 2.76941991 15.61582008 -0.8125 18.75 C-4.75360696 20.17229465 -7.74178404 20.17828638 -11.625 18.625 C-15.06275497 15.67835288 -16.62188005 13.27495962 -17.1875 8.75 C-16.7562477 5.29998157 -15.94098485 3.48662337 -13.8125 0.75 C-9.65194818 -2.37041386 -4.59375224 -2.04166766 0 0 Z " fill="#4F4A4C" transform="translate(217.8125,66.25)"/>
<path d="M0 0 C1.32 0.33 2.64 0.66 4 1 C2.63886645 5.22395248 0.84515115 7.42893626 -2.5 10.3125 C-3.2940625 11.00988281 -4.088125 11.70726562 -4.90625 12.42578125 C-7 14 -7 14 -9 14 C-9 14.66 -9 15.32 -9 16 C-22.44108244 27.53085109 -43.27936211 33.94050103 -60.82421875 33.17578125 C-61.90123047 33.08876953 -61.90123047 33.08876953 -63 33 C-63 31.68 -63 30.36 -63 29 C-61.9584375 28.91363281 -60.916875 28.82726562 -59.84375 28.73828125 C-37.9772812 26.69288265 -18.96593309 19.3999325 -3 4 C-1.95963973 2.69791387 -0.93859444 1.37725025 0 0 Z " fill="#2B282E" transform="translate(181,175)"/>
<path d="M0 0 C5.50619612 3.26293103 5.50619612 3.26293103 6.55078125 6.9375 C6.81013892 10.85009577 6.20809832 12.68785252 4 16 C0.67112371 18.21925086 -1.13936508 18.75890933 -5.0625 18.4765625 C-8.61497432 17.60276841 -10.01078114 15.9838283 -12 13 C-12.75608333 10.13727226 -12.81144575 7.85444748 -12 5 C-8.37923712 0.86198528 -5.52333149 -1.15069406 0 0 Z " fill="#B37547" transform="translate(183,18)"/>
<path d="M0 0 C3 2.0625 3 2.0625 5 5 C5.06944397 8.95830645 4.5699479 11.14507816 2.375 14.4375 C-0.98693999 16.64930263 -3.05974542 16.6332552 -7 16 C-10.22456813 13.27151928 -10.91290117 11.62057913 -11.5 7.4375 C-11 4 -11 4 -9.4375 1.5625 C-6.01685857 -0.63021887 -3.99048721 -0.63007693 0 0 Z " fill="#B37547" transform="translate(76,151)"/>
<path d="M0 0 C2 1.6875 2 1.6875 3 4 C2.87304813 7.11032079 2.47953174 9.20078043 0.875 11.875 C-2.12446786 13.67468071 -4.59386668 13.36494286 -8 13 C-9.9375 12 -9.9375 12 -11 10 C-11.46000079 7.23999526 -11.50420748 4.75595226 -11 2 C-7.95184114 -2.0235697 -4.53799409 -1.23763475 0 0 Z " fill="#B17347" transform="translate(114,117)"/>
<path d="M0 0 C2.46324069 3.69486103 2.38991688 5.63293092 2 10 C0.9375 11.9375 0.9375 11.9375 -1 13 C-4.92005446 13.49891602 -7.11594538 13.55253414 -10.5 11.4375 C-12 9 -12 9 -12 5.4375 C-11 2 -11 2 -9.375 0 C-5.92336696 -1.45331917 -3.57190516 -0.92604949 0 0 Z " fill="#B27447" transform="translate(99,70)"/>
<path d="M0 0 C4.91511194 1.34048507 4.91511194 1.34048507 6.4375 3.9375 C6.97818562 7.56781776 6.90129841 9.25964079 4.8125 12.3125 C1.72563568 14.42456506 0.1092087 14.54945145 -3.5625 13.9375 C-5.9375 12.3125 -5.9375 12.3125 -7.5625 9.9375 C-8.17225382 6.27897708 -8.00793026 4.63237121 -6 1.5 C-3.5625 -0.0625 -3.5625 -0.0625 0 0 Z " fill="#B27447" transform="translate(170.5625,55.0625)"/>
<path d="M0 0 C1.8125 1.0625 1.8125 1.0625 3 3 C3.3125 6.5625 3.3125 6.5625 3 10 C1 12 1 12 -2.5 12.25 C-6 12 -6 12 -8 10 C-8.55416667 3.90416667 -8.55416667 3.90416667 -6.8125 1.0625 C-4.33950907 -0.38718434 -2.82115488 -0.42317323 0 0 Z " fill="#B37547" transform="translate(214,69)"/>
<path d="M0 0 C1.32 0 2.64 0 4 0 C3.36070541 4.4665382 1.6699853 8.24346786 -0.3125 12.25 C-0.60833984 12.88679687 -0.90417969 13.52359375 -1.20898438 14.1796875 C-3.47671602 18.78372151 -3.47671602 18.78372151 -6.23046875 19.921875 C-6.81441406 19.94765625 -7.39835938 19.9734375 -8 20 C-7.35014905 15.28629244 -5.48438608 11.42313556 -3.4375 7.1875 C-2.9434668 6.14819336 -2.9434668 6.14819336 -2.43945312 5.08789062 C-1.63127749 3.38955052 -0.81631623 1.69444231 0 0 Z " fill="#2A282E" transform="translate(196,150)"/>
<path d="M0 0 C1.32 0 2.64 0 4 0 C3.88487847 1.72985242 3.75744323 3.45888751 3.625 5.1875 C3.55539063 6.15042969 3.48578125 7.11335937 3.4140625 8.10546875 C2.99784147 11.01508938 2.20125904 13.32890774 1 16 C-0.32 16 -1.64 16 -3 16 C-2.30834212 10.58201328 -1.24200752 5.3177215 0 0 Z " fill="#342F32" transform="translate(201,130)"/>
<path d="M0 0 C0.66 0.33 1.32 0.66 2 1 C-3.28 6.28 -8.56 11.56 -14 17 C-14 12.37669884 -11.12290399 10.20783652 -8 7 C-5.39257574 4.59350628 -2.7233691 2.27408232 0 0 Z " fill="#3E404A" transform="translate(48,36)"/>
</svg>
