<svg xmlns="http://www.w3.org/2000/svg" xmlns:xlink="http://www.w3.org/1999/xlink" width="1920" height="1080" viewBox="0 0 1920 1080">
  <defs>
    <filter id="Retângulo_2" x="1439" y="113" width="404" height="721" filterUnits="userSpaceOnUse">
      <feOffset dx="10" dy="10" input="SourceAlpha"/>
      <feGaussianBlur stdDeviation="3" result="blur"/>
      <feFlood flood-opacity="0.4"/>
      <feComposite operator="in" in2="blur"/>
      <feComposite in="SourceGraphic"/>
    </filter>
    <clipPath id="clip-path">
      <rect width="299" height="56" fill="none"/>
    </clipPath>
    <linearGradient id="linear-gradient" x1="0.5" x2="1.092" y2="1.35" gradientUnits="objectBoundingBox">
      <stop offset="0" stop-color="#fff"/>
      <stop offset="0.336" stop-color="#fee4e4"/>
      <stop offset="1" stop-color="#fc6767"/>
    </linearGradient>
    <linearGradient id="linear-gradient-2" x1="0.5" x2="0.679" y2="1.369" gradientUnits="objectBoundingBox">
      <stop offset="0" stop-color="#fff"/>
      <stop offset="1" stop-color="#1488cc"/>
    </linearGradient>
    <linearGradient id="linear-gradient-3" x1="1.225" y1="-0.102" x2="-1.238" y2="0.343" gradientUnits="objectBoundingBox">
      <stop offset="0" stop-color="#f7ff00"/>
      <stop offset="1" stop-color="#db36a4"/>
    </linearGradient>
    <linearGradient id="linear-gradient-4" x1="0.5" y1="-0.198" x2="0.5" y2="0.748" gradientUnits="objectBoundingBox">
      <stop offset="0" stop-color="#ffe259"/>
      <stop offset="1" stop-color="#ffa751"/>
    </linearGradient>
    <linearGradient id="linear-gradient-5" x1="0.5" y1="1.091" x2="0.5" y2="-0.24" gradientUnits="objectBoundingBox">
      <stop offset="0" stop-color="#11998e"/>
      <stop offset="1" stop-color="#38ef7d"/>
    </linearGradient>
    <linearGradient id="linear-gradient-6" x1="0.5" x2="-0.302" y2="0.883" gradientUnits="objectBoundingBox">
      <stop offset="0" stop-color="#89c0f9"/>
      <stop offset="0.592" stop-color="#358c79"/>
      <stop offset="1" stop-color="#2b8669"/>
    </linearGradient>
    <linearGradient id="linear-gradient-7" x1="1" y1="1" x2="-0.4" y2="0.245" gradientUnits="objectBoundingBox">
      <stop offset="0" stop-color="#ec008c"/>
      <stop offset="0.072" stop-color="#ec028b"/>
      <stop offset="1" stop-color="#fc6767"/>
    </linearGradient>
    <linearGradient id="linear-gradient-8" x1="1" x2="-0.426" y2="1.266" gradientUnits="objectBoundingBox">
      <stop offset="0" stop-color="#1488cc"/>
      <stop offset="0.325" stop-color="#1877c7"/>
      <stop offset="1" stop-color="#2b32b2"/>
    </linearGradient>
    <linearGradient id="linear-gradient-9" x1="0.093" y1="0.226" x2="2.196" y2="1.958" gradientUnits="objectBoundingBox">
      <stop offset="0" stop-color="#fff"/>
      <stop offset="1" stop-color="gray"/>
    </linearGradient>
    <clipPath id="clip-Web_1920_1">
      <rect width="1920" height="1080"/>
    </clipPath>
  </defs>
  <g id="Web_1920_1" data-name="Web 1920 – 1" clip-path="url(#clip-Web_1920_1)">
    <rect width="1920" height="1080" fill="#1e1d1d"/>
    <rect id="Retângulo_1" data-name="Retângulo 1" width="1884" height="76" rx="15" transform="translate(24 37)" fill="#5a5858"/>
    <g transform="matrix(1, 0, 0, 1, 0, 0)" filter="url(#Retângulo_2)">
      <rect id="Retângulo_2-2" data-name="Retângulo 2" width="385" height="702" transform="translate(1439 113)" opacity="0.42"/>
    </g>
    <g id="Retângulo_3" data-name="Retângulo 3" transform="translate(1404 48)" fill="#5a5858" stroke="#fff" stroke-width="1">
      <rect width="473" height="55" rx="12" stroke="none"/>
      <rect x="0.5" y="0.5" width="472" height="54" rx="11.5" fill="none"/>
    </g>
    <g id="Retângulo_4" data-name="Retângulo 4" transform="translate(1426 65)" fill="#a79e9e" stroke="#707070" stroke-width="1">
      <rect width="429" height="21" stroke="none"/>
      <rect x="0.5" y="0.5" width="428" height="20" fill="none"/>
    </g>
    <g id="Retângulo_5" data-name="Retângulo 5" transform="translate(147 52)" fill="#fff" stroke="#707070" stroke-width="1" opacity="0.74">
      <rect width="1209" height="47" rx="23.5" stroke="none"/>
      <rect x="0.5" y="0.5" width="1208" height="46" rx="23" fill="none"/>
    </g>
    <g id="Elipse_1" data-name="Elipse 1" transform="translate(44 46)" fill="#fff" stroke="#707070" stroke-width="1" opacity="0.65">
      <ellipse cx="25.5" cy="26.5" rx="25.5" ry="26.5" stroke="none"/>
      <ellipse cx="25.5" cy="26.5" rx="25" ry="26" fill="none"/>
    </g>
    <g id="Retângulo_6" data-name="Retângulo 6" transform="translate(1473 197)" fill="#fff" stroke="#707070" stroke-width="1" opacity="0.91">
      <rect width="318" height="51" rx="15" stroke="none"/>
      <rect x="0.5" y="0.5" width="317" height="50" rx="14.5" fill="none"/>
    </g>
    <g id="Repetição_de_grade_1" data-name="Repetição de grade 1" transform="translate(1483 293)" opacity="0.88" clip-path="url(#clip-path)">
      <g transform="translate(-1473 -299)">
        <g id="Retângulo_7" data-name="Retângulo 7" transform="translate(1473 299)" fill="#fff" stroke="#707070" stroke-width="1">
          <rect width="58" height="56" rx="10" stroke="none"/>
          <rect x="0.5" y="0.5" width="57" height="55" rx="9.5" fill="none"/>
        </g>
      </g>
      <g transform="translate(-1395 -299)">
        <g id="Retângulo_7-2" data-name="Retângulo 7" transform="translate(1473 299)" fill="#fff" stroke="#707070" stroke-width="1">
          <rect width="58" height="56" rx="10" stroke="none"/>
          <rect x="0.5" y="0.5" width="57" height="55" rx="9.5" fill="none"/>
        </g>
      </g>
      <g transform="translate(-1317 -299)">
        <g id="Retângulo_7-3" data-name="Retângulo 7" transform="translate(1473 299)" fill="#fff" stroke="#707070" stroke-width="1">
          <rect width="58" height="56" rx="10" stroke="none"/>
          <rect x="0.5" y="0.5" width="57" height="55" rx="9.5" fill="none"/>
        </g>
      </g>
      <g transform="translate(-1239 -299)">
        <g id="Retângulo_7-4" data-name="Retângulo 7" transform="translate(1473 299)" fill="#fff" stroke="#707070" stroke-width="1">
          <rect width="58" height="56" rx="10" stroke="none"/>
          <rect x="0.5" y="0.5" width="57" height="55" rx="9.5" fill="none"/>
        </g>
      </g>
    </g>
    <g id="Retângulo_8" data-name="Retângulo 8" transform="translate(1506 540)" fill="#757474" stroke="#707070" stroke-width="1">
      <rect width="112" height="70" rx="35" stroke="none"/>
      <rect x="0.5" y="0.5" width="111" height="69" rx="34.5" fill="none"/>
    </g>
    <g id="Elipse_2" data-name="Elipse 2" transform="translate(1675 540)" fill="#757474" stroke="#707070" stroke-width="1" opacity="0.84">
      <circle cx="35" cy="35" r="35" stroke="none"/>
      <circle cx="35" cy="35" r="34.5" fill="none"/>
    </g>
    <g id="Retângulo_9" data-name="Retângulo 9" transform="translate(1531 566)" fill="#fff" stroke="#707070" stroke-width="1" opacity="0.71">
      <rect width="62" height="18" stroke="none"/>
      <rect x="0.5" y="0.5" width="61" height="17" fill="none"/>
    </g>
    <g id="Retângulo_10" data-name="Retângulo 10" transform="translate(1693 566)" fill="#fff" stroke="#707070" stroke-width="1" opacity="0.71">
      <rect width="34" height="18" stroke="none"/>
      <rect x="0.5" y="0.5" width="33" height="17" fill="none"/>
    </g>
    <g id="Grupo_1" data-name="Grupo 1" transform="translate(-205 -171)">
      <g id="SPRK_default_preset_name_custom_1" data-name="SPRK default preset name custom 1" transform="translate(112 148.206)">
        <g id="Retângulo_1-2" data-name="Retângulo 1" transform="translate(204.186 289.182)">
          <path id="Caminho_1" data-name="Caminho 1" d="M241,447h1.191a18.045,18.045,0,0,1,18.049,18.049v61.506a9.619,9.619,0,0,1-9.62,9.62h0a9.619,9.619,0,0,1-9.62-9.62V447Z" transform="translate(-241 -447)" fill="url(#linear-gradient)"/>
          <path id="Caminho_2" data-name="Caminho 2" d="M241.5,447.5h1.038a17.9,17.9,0,0,1,17.9,17.9V526.9a9.475,9.475,0,0,1-9.467,9.467h0A9.475,9.475,0,0,1,241.5,526.9V447.5Z" transform="translate(-241.347 -447.347)" fill="none"/>
        </g>
        <g id="Retângulo_2-3" data-name="Retângulo 2" transform="translate(343.141 288.571)">
          <path id="Caminho_3" data-name="Caminho 3" d="M714.049,445h1.191v79.555a9.619,9.619,0,0,1-9.62,9.62h0a9.619,9.619,0,0,1-9.62-9.62V463.049A18.045,18.045,0,0,1,714.049,445Z" transform="translate(-696 -445)" fill="url(#linear-gradient-2)"/>
          <path id="Caminho_4" data-name="Caminho 4" d="M714.4,445.5h1.038v79.4a9.475,9.475,0,0,1-9.467,9.467h0A9.475,9.475,0,0,1,696.5,524.9V463.4A17.9,17.9,0,0,1,714.4,445.5Z" transform="translate(-696.347 -445.347)" fill="none"/>
        </g>
        <g id="Retângulo_1-2-2" data-name="Retângulo 1-2" transform="translate(231.977 275.439)">
          <path id="Caminho_5" data-name="Caminho 5" d="M341.62,402h0a9.619,9.619,0,0,1,9.62,9.62v97.116a9.619,9.619,0,0,1-9.62,9.62h0a9.619,9.619,0,0,1-9.62-9.62V411.62A9.619,9.619,0,0,1,341.62,402Z" transform="translate(-332 -402)" fill="url(#linear-gradient-3)"/>
          <path id="Caminho_6" data-name="Caminho 6" d="M341.967,402.5h0a9.475,9.475,0,0,1,9.467,9.467v97.116a9.475,9.475,0,0,1-9.467,9.467h0a9.475,9.475,0,0,1-9.467-9.467V411.967A9.475,9.475,0,0,1,341.967,402.5Z" transform="translate(-332.347 -402.347)" fill="none"/>
        </g>
        <g id="Retângulo_1-3" data-name="Retângulo 1-3" transform="translate(259.768 297.427)">
          <path id="Caminho_7" data-name="Caminho 7" d="M432.62,474h0a9.619,9.619,0,0,1,9.62,9.62v53.444a9.619,9.619,0,0,1-9.62,9.62h0a9.619,9.619,0,0,1-9.62-9.62V483.62A9.619,9.619,0,0,1,432.62,474Z" transform="translate(-423 -474)" fill="url(#linear-gradient-4)"/>
          <path id="Caminho_8" data-name="Caminho 8" d="M432.967,474.5h0a9.475,9.475,0,0,1,9.467,9.467v53.444a9.475,9.475,0,0,1-9.467,9.467h0a9.475,9.475,0,0,1-9.467-9.467V483.967A9.475,9.475,0,0,1,432.967,474.5Z" transform="translate(-423.347 -474.347)" fill="none"/>
        </g>
        <g id="Retângulo_1-4" data-name="Retângulo 1-4" transform="translate(287.559 297.427)">
          <path id="Caminho_9" data-name="Caminho 9" d="M523.62,474h0a9.619,9.619,0,0,1,9.62,9.62v53.444a9.619,9.619,0,0,1-9.62,9.62h0a9.619,9.619,0,0,1-9.62-9.62V483.62A9.619,9.619,0,0,1,523.62,474Z" transform="translate(-514 -474)" fill="url(#linear-gradient-5)"/>
          <path id="Caminho_10" data-name="Caminho 10" d="M523.967,474.5h0a9.475,9.475,0,0,1,9.467,9.467v53.444a9.475,9.475,0,0,1-9.467,9.467h0a9.475,9.475,0,0,1-9.467-9.467V483.967A9.475,9.475,0,0,1,523.967,474.5Z" transform="translate(-514.347 -474.347)" fill="none"/>
        </g>
        <g id="Retângulo_1-5" data-name="Retângulo 1-5" transform="translate(315.35 275.439)">
          <path id="Caminho_11" data-name="Caminho 11" d="M614.62,402h0a9.619,9.619,0,0,1,9.62,9.62v97.116a9.619,9.619,0,0,1-9.62,9.62h0a9.619,9.619,0,0,1-9.62-9.62V411.62A9.619,9.619,0,0,1,614.62,402Z" transform="translate(-605 -402)" fill="url(#linear-gradient-6)"/>
          <path id="Caminho_12" data-name="Caminho 12" d="M614.967,402.5h0a9.475,9.475,0,0,1,9.467,9.467v97.116a9.475,9.475,0,0,1-9.467,9.467h0a9.475,9.475,0,0,1-9.467-9.467V411.967A9.475,9.475,0,0,1,614.967,402.5Z" transform="translate(-605.347 -402.347)" fill="none"/>
        </g>
        <g id="Retângulo_3-2" data-name="Retângulo 3" transform="translate(188 295.595)">
          <path id="Caminho_13" data-name="Caminho 13" d="M194.108,468h10.078v68.714H194.108A6.126,6.126,0,0,1,188,530.606v-56.5A6.126,6.126,0,0,1,194.108,468Z" transform="translate(-188 -468)" fill="url(#linear-gradient-7)"/>
          <path id="Caminho_14" data-name="Caminho 14" d="M194.455,468.5h9.925v68.408h-9.925a5.943,5.943,0,0,1-5.955-5.955v-56.5A5.943,5.943,0,0,1,194.455,468.5Z" transform="translate(-188.347 -468.347)" fill="none"/>
        </g>
        <g id="Retângulo_4-2" data-name="Retângulo 4" transform="translate(362.38 295.595)">
          <path id="Caminho_15" data-name="Caminho 15" d="M759,468h10.078a6.126,6.126,0,0,1,6.108,6.108v56.5a6.126,6.126,0,0,1-6.108,6.108H759V468Z" transform="translate(-759 -468)" fill="url(#linear-gradient-8)"/>
          <path id="Caminho_16" data-name="Caminho 16" d="M759.5,468.5h9.925a5.943,5.943,0,0,1,5.955,5.955v56.5a5.943,5.943,0,0,1-5.955,5.955H759.5V468.5Z" transform="translate(-759.347 -468.347)" fill="none"/>
        </g>
        <path id="Caminho_11-2" data-name="Caminho 11" d="M261.706,286.067c5.589-15.728,13.132-31.761,26.905-41.2,8.032-5.528,17.652-8.368,27.3-9.589a73.482,73.482,0,0,1,20.217.061,60.18,60.18,0,0,1,50.543,50.7l15.025-4.947a74.4,74.4,0,0,0-58.117-59.644c-11.6-2.413-23.7-2.016-35.365.122-11.605,2.107-23.088,5.986-32.555,12.979-14.567,10.75-23.149,27.883-28.463,45.2,1.344.58,14.537,6.2,14.506,6.352Z" transform="translate(-41.121 0)" fill="url(#linear-gradient-9)"/>
      </g>
      <text id="AudioCalc." transform="translate(527 407)" fill="#fff" font-size="100" font-family="SegoeUI, Segoe UI"><tspan x="0" y="108">AudioCalc.</tspan></text>
    </g>
  </g>
</svg>
